# xmcd CD database file
#
# Track frame offsets:
#	150
#	6455
#	18363
#	31870
#	42563
#	68379
#	79129
#	92101
#	106651
#	120090
#	132274
#	173340
#	186150
#	201181
#	217838
#	223076
#	244426
#
# Disc length: 3398 seconds
#
# Revision: 0
# Processed by: cddbd v1.5.2PL0 Copyright (c) Steve Scherf et al.
# Submitted via: CDex 1.51
#
DISCID=dc0d4411
DTITLE=Hendrik Feder - Blossoming 
DYEAR=2008
DGENRE=Jazz
TTITLE0=Echo
TTITLE1=You had it coming
TTITLE2=Jalapeno diplomacy
TTITLE3=Fugue noire
TTITLE4=Kontraquintett
TTITLE5=At the barre
TTITLE6=Blossoming
TTITLE7=A smell of blood
TTITLE8=Tribute to the nameless
TTITLE9=Voodoo kakadooo
TTITLE10=Huevos
TTITLE11=Falscher Platz
TTITLE12=Rue Cases-Nègres
TTITLE13=We small islands behind
TTITLE14=Scale to Heaven
TTITLE15=First steps
TTITLE16=À Saint-Germain-des-Prés
EXTD=YEAR: 2008
EXTT0=
EXTT1=
EXTT2=
EXTT3=
EXTT4=
EXTT5=
EXTT6=
EXTT7=
EXTT8=
EXTT9=
EXTT10=
EXTT11=
EXTT12=
EXTT13=
EXTT14=
EXTT15=
EXTT16=
PLAYORDER=
